<svg width="489" height="268" viewBox="0 0 489 268" fill="none" xmlns="http://www.w3.org/2000/svg">
<path fill-rule="evenodd" clip-rule="evenodd" d="M146.524 73.2617C146.524 32.8004 113.723 -1.76883e-06 73.2619 0C32.8004 1.76827e-06 -1.76866e-06 32.8004 0 73.2617C1.76861e-06 113.723 98.2131 266.882 138.674 266.882C111.432 249.476 125.789 182.445 137.122 129.534V129.532C142.117 106.215 146.524 85.6386 146.524 73.2617ZM125.591 53.825C125.591 45.5675 118.897 38.8736 110.64 38.8736C102.382 38.8736 95.6883 45.5675 95.6883 53.825C95.6883 62.0827 102.382 68.7761 110.64 68.7761C118.897 68.7761 125.591 62.0827 125.591 53.825ZM78.4951 86.344C88.4038 86.344 95.6889 90.2657 95.6889 100.174C95.6889 110.084 88.4038 125.592 78.4951 125.592C68.5859 125.592 59.8055 110.084 59.8055 100.174C59.8055 90.2657 68.5859 86.344 78.4951 86.344ZM74.7571 46.3493C74.7571 33.9632 64.7163 23.9222 52.3302 23.9222C39.944 23.9222 29.9031 33.9632 29.9031 46.3493C29.9031 58.7354 39.944 68.7761 52.3302 68.7761C64.7163 68.7761 74.7571 58.7354 74.7571 46.3493Z" fill="#1CA477"/>
<path d="M241.63 221.638H237.94V254.856H241.63V266.962H213.728V254.856H217.271V229.02L204.722 266.962H193.797L180.879 229.389V254.856H184.422V266.962H160.21V254.856H163.901V221.638H160.21V209.532H194.019L201.696 232.563L209.077 209.532H241.63V221.638ZM274.522 267.995C265.516 267.995 258.553 265.633 253.632 260.909C248.76 256.185 246.324 248.631 246.324 238.247C246.324 227.863 248.76 220.31 253.632 215.585C258.553 210.861 265.516 208.499 274.522 208.499C283.527 208.499 290.466 210.861 295.338 215.585C300.259 220.31 302.72 227.863 302.72 238.247C302.72 248.631 300.259 256.185 295.338 260.909C290.466 265.633 283.527 267.995 274.522 267.995ZM274.522 254.856C276.195 254.856 277.45 254.413 278.286 253.527C279.123 252.642 279.541 251.263 279.541 249.394V227.101C279.541 225.231 279.123 223.853 278.286 222.967C277.45 222.081 276.195 221.638 274.522 221.638C272.848 221.638 271.593 222.081 270.757 222.967C269.921 223.853 269.502 225.231 269.502 227.101V249.394C269.502 251.313 269.921 252.715 270.757 253.601C271.593 254.438 272.848 254.856 274.522 254.856ZM349.962 209.532H374.174V221.638H370.483V266.962H349.74L328.112 233.671V254.856H331.655V266.962H307.443V254.856H311.134V221.638H307.443V209.532H334.091L353.505 239.133V221.638H349.962V209.532ZM379.222 266.962V254.856H382.913V221.638H379.222V209.532H429.048V231.825H412.513V221.638H403.581V233.301H410.077V241.717H403.581V254.856H412.513V243.193H429.048V266.962H379.222ZM466.317 209.532H488.979V221.638H486.026L471.78 247.179V254.856H475.471V266.962H447.42V254.856H451.111V247.179L436.421 221.638H433.469V209.532H462.036V221.638H459.452L463.808 233.08H464.546L468.901 221.638H466.317V209.532Z" fill="#1CA477"/>
</svg>
