<svg width="147" height="267" viewBox="0 0 147 267" fill="none" xmlns="http://www.w3.org/2000/svg">
<path fill-rule="evenodd" clip-rule="evenodd" d="M146.524 73.2617C146.524 32.8005 113.723 -1.76883e-06 73.2619 0C32.8004 1.76827e-06 -1.76866e-06 32.8005 0 73.2617C1.76861e-06 113.723 98.2131 266.882 138.674 266.882C111.432 249.476 125.789 182.445 137.122 129.534V129.532C142.117 106.215 146.524 85.6386 146.524 73.2617ZM125.591 53.825C125.591 45.5675 118.897 38.8736 110.64 38.8736C102.382 38.8736 95.6883 45.5675 95.6883 53.825C95.6883 62.0827 102.382 68.7761 110.64 68.7761C118.897 68.7761 125.591 62.0827 125.591 53.825ZM78.4951 86.344C88.4038 86.344 95.6889 90.2657 95.6889 100.174C95.6889 110.084 88.4038 125.592 78.4951 125.592C68.5859 125.592 59.8055 110.084 59.8055 100.174C59.8055 90.2657 68.5859 86.344 78.4951 86.344ZM74.7571 46.3493C74.7571 33.9631 64.7163 23.9222 52.3302 23.9222C39.944 23.9222 29.9031 33.9631 29.9031 46.3493C29.9031 58.7354 39.944 68.7761 52.3302 68.7761C64.7163 68.7761 74.7571 58.7354 74.7571 46.3493Z" fill="#1CA477"/>
</svg>
