<svg width="31" height="24" viewBox="0 0 31 24" fill="none" xmlns="http://www.w3.org/2000/svg">
<path d="M29.5 9H28.475L25.135 1.485C24.9386 1.04295 24.6182 0.66737 24.2126 0.403786C23.807 0.140203 23.3337 -6.13719e-05 22.85 2.01444e-08H8.15C7.66629 -6.13719e-05 7.19295 0.140203 6.78737 0.403786C6.38179 0.66737 6.06139 1.04295 5.865 1.485L2.525 9H1.5C1.10218 9 0.720644 9.15804 0.43934 9.43934C0.158035 9.72064 0 10.1022 0 10.5C0 10.8978 0.158035 11.2794 0.43934 11.5607C0.720644 11.842 1.10218 12 1.5 12H2V21.5C2 22.163 2.26339 22.7989 2.73223 23.2678C3.20107 23.7366 3.83696 24 4.5 24H7.5C8.16304 24 8.79893 23.7366 9.26777 23.2678C9.73661 22.7989 10 22.163 10 21.5V20H21V21.5C21 22.163 21.2634 22.7989 21.7322 23.2678C22.2011 23.7366 22.837 24 23.5 24H26.5C27.163 24 27.7989 23.7366 28.2678 23.2678C28.7366 22.7989 29 22.163 29 21.5V12H29.5C29.8978 12 30.2794 11.842 30.5607 11.5607C30.842 11.2794 31 10.8978 31 10.5C31 10.1022 30.842 9.72064 30.5607 9.43934C30.2794 9.15804 29.8978 9 29.5 9ZM8.475 3H22.525L25.1912 9H5.80875L8.475 3ZM26 21H24V18.5C24 18.1022 23.842 17.7206 23.5607 17.4393C23.2794 17.158 22.8978 17 22.5 17H8.5C8.10218 17 7.72064 17.158 7.43934 17.4393C7.15804 17.7206 7 18.1022 7 18.5V21H5V12H26V21Z" fill="white"/>
</svg>
