<svg width="27" height="20" viewBox="0 0 27 20" fill="none" xmlns="http://www.w3.org/2000/svg">
<path d="M25.0714 0H1.92857C1.41708 0 0.926543 0.203188 0.564865 0.564865C0.203188 0.926543 0 1.41708 0 1.92857V17.3571C0 17.8686 0.203188 18.3592 0.564865 18.7208C0.926543 19.0825 1.41708 19.2857 1.92857 19.2857H25.0714C25.5829 19.2857 26.0735 19.0825 26.4351 18.7208C26.7968 18.3592 27 17.8686 27 17.3571V1.92857C27 1.41708 26.7968 0.926543 26.4351 0.564865C26.0735 0.203188 25.5829 0 25.0714 0ZM25.0714 1.92857V4.82143H1.92857V1.92857H25.0714ZM25.0714 17.3571H1.92857V6.75H25.0714V17.3571ZM23.1429 14.4643C23.1429 14.72 23.0413 14.9653 22.8604 15.1461C22.6796 15.327 22.4343 15.4286 22.1786 15.4286H18.3214C18.0657 15.4286 17.8204 15.327 17.6396 15.1461C17.4587 14.9653 17.3571 14.72 17.3571 14.4643C17.3571 14.2085 17.4587 13.9633 17.6396 13.7824C17.8204 13.6016 18.0657 13.5 18.3214 13.5H22.1786C22.4343 13.5 22.6796 13.6016 22.8604 13.7824C23.0413 13.9633 23.1429 14.2085 23.1429 14.4643ZM15.4286 14.4643C15.4286 14.72 15.327 14.9653 15.1461 15.1461C14.9653 15.327 14.72 15.4286 14.4643 15.4286H12.5357C12.28 15.4286 12.0347 15.327 11.8539 15.1461C11.673 14.9653 11.5714 14.72 11.5714 14.4643C11.5714 14.2085 11.673 13.9633 11.8539 13.7824C12.0347 13.6016 12.28 13.5 12.5357 13.5H14.4643C14.72 13.5 14.9653 13.6016 15.1461 13.7824C15.327 13.9633 15.4286 14.2085 15.4286 14.4643Z" fill="#1CA477"/>
</svg>
