<svg width="31" height="23" viewBox="0 0 31 23" fill="none" xmlns="http://www.w3.org/2000/svg">
<path d="M30 17.5026L18 8.50259L20.4 6.70259C20.5863 6.56287 20.7375 6.3817 20.8416 6.17342C20.9458 5.96513 21 5.73546 21 5.50259C21.0007 4.10286 20.4676 2.75554 19.5095 1.73514C18.5513 0.714746 17.2402 0.0980564 15.8432 0.0107235C14.4462 -0.0766093 13.0684 0.371986 11.9906 1.26511C10.9129 2.15823 10.2162 3.42868 10.0425 4.81759C10.0179 5.0131 10.032 5.21154 10.0841 5.40159C10.1361 5.59163 10.2251 5.76956 10.346 5.92522C10.4668 6.08087 10.6171 6.2112 10.7883 6.30877C10.9595 6.40633 11.1482 6.46922 11.3438 6.49384C11.5393 6.51847 11.7377 6.50434 11.9277 6.45227C12.1178 6.40021 12.2957 6.31122 12.4514 6.19038C12.607 6.06955 12.7374 5.91924 12.8349 5.74804C12.9325 5.57684 12.9954 5.3881 13.02 5.19259C13.0924 4.62054 13.3603 4.0911 13.7784 3.69397C14.1965 3.29685 14.739 3.05644 15.314 3.01349C15.889 2.97053 16.4612 3.12767 16.9336 3.45828C17.406 3.78889 17.7497 4.27265 17.9062 4.82759L14.625 7.28259C14.6062 7.29509 14.5887 7.30884 14.5712 7.32259L1 17.5026C0.580235 17.8174 0.270167 18.2563 0.113716 18.7572C-0.0427342 19.258 -0.0376349 19.7954 0.128292 20.2932C0.294218 20.7909 0.612561 21.2239 1.03822 21.5307C1.46389 21.8375 1.97529 22.0026 2.5 22.0026H28.5C29.0247 22.0026 29.5361 21.8375 29.9618 21.5307C30.3874 21.2239 30.7058 20.7909 30.8717 20.2932C31.0376 19.7954 31.0427 19.258 30.8863 18.7572C30.7298 18.2563 30.4198 17.8174 30 17.5026ZM4 19.0026L15.5 10.3776L27 19.0026H4Z" fill="white"/>
</svg>
