<svg width="24" height="27" viewBox="0 0 24 27" fill="none" xmlns="http://www.w3.org/2000/svg">
<path d="M5 7.5052V1.5052C5 1.10738 5.15804 0.725848 5.43934 0.444543C5.72064 0.163238 6.10218 0.00520312 6.5 0.00520312C6.89782 0.00520312 7.27936 0.163238 7.56066 0.444543C7.84196 0.725848 8 1.10738 8 1.5052V7.5052C8 7.90303 7.84196 8.28456 7.56066 8.56586C7.27936 8.84717 6.89782 9.0052 6.5 9.0052C6.10218 9.0052 5.72064 8.84717 5.43934 8.56586C5.15804 8.28456 5 7.90303 5 7.5052ZM24 1.5052V24.5052C24 24.903 23.842 25.2846 23.5607 25.5659C23.2794 25.8472 22.8978 26.0052 22.5 26.0052C22.1022 26.0052 21.7206 25.8472 21.4393 25.5659C21.158 25.2846 21 24.903 21 24.5052V19.0052H15.5C15.1022 19.0052 14.7206 18.8472 14.4393 18.5659C14.158 18.2846 14 17.903 14 17.5052C14.0469 15.0703 14.354 12.6473 14.9163 10.2777C16.1775 5.0577 18.595 1.54645 21.9088 0.130203C22.1366 0.0324659 22.3852 -0.00725483 22.6322 0.0145949C22.8792 0.0364446 23.1169 0.119183 23.3241 0.255408C23.5313 0.391633 23.7015 0.577094 23.8194 0.795198C23.9374 1.0133 23.9994 1.25725 24 1.5052ZM21 4.3702C19.325 6.1302 18.375 8.7552 17.8463 10.9277C17.4506 12.5965 17.1906 14.2945 17.0688 16.0052H21V4.3702ZM12.5 1.3802C12.4668 0.982378 12.277 0.614017 11.9723 0.356155C11.6675 0.0982921 11.2728 -0.0279489 10.875 0.00520312C10.4772 0.0383552 10.1088 0.228185 9.85095 0.532931C9.59309 0.837678 9.46685 1.23238 9.5 1.6302L10 7.5627C10 8.49096 9.63125 9.3812 8.97487 10.0376C8.3185 10.694 7.42826 11.0627 6.5 11.0627C5.57174 11.0627 4.6815 10.694 4.02513 10.0376C3.36875 9.3812 3 8.49096 3 7.5627L3.5 1.6302C3.51642 1.43322 3.49387 1.23493 3.43365 1.04666C3.37344 0.858392 3.27673 0.683826 3.14905 0.532931C3.02137 0.382036 2.86522 0.257767 2.68951 0.167219C2.5138 0.0766715 2.32198 0.0216184 2.125 0.00520312C1.92802 -0.0112121 1.72973 0.011332 1.54146 0.0715483C1.35319 0.131765 1.17862 0.228474 1.02773 0.356155C0.876833 0.483835 0.752564 0.639987 0.662016 0.815693C0.571468 0.9914 0.516415 1.18322 0.5 1.3802L0 7.3802C0 7.4227 0 7.46395 0 7.5052C0.0023986 8.96758 0.496917 10.3866 1.40392 11.5337C2.31092 12.6808 3.57761 13.4893 5 13.829V24.5052C5 24.903 5.15804 25.2846 5.43934 25.5659C5.72064 25.8472 6.10218 26.0052 6.5 26.0052C6.89782 26.0052 7.27936 25.8472 7.56066 25.5659C7.84196 25.2846 8 24.903 8 24.5052V13.829C9.42239 13.4893 10.6891 12.6808 11.5961 11.5337C12.5031 10.3866 12.9976 8.96758 13 7.5052C13 7.46395 13 7.4227 13 7.3802L12.5 1.3802Z" fill="white"/>
</svg>
