<svg xmlns="http://www.w3.org/2000/svg" fill="#FFFFFF" viewBox="0 0 48 48" width="26px" height="26px"><path d="M 11.5 6 C 8.4802259 6 6 8.4802259 6 11.5 L 6 36.5 C 6 39.519774 8.4802259 42 11.5 42 L 36.5 42 C 39.519774 42 42 39.519774 42 36.5 L 42 11.5 C 42 8.4802259 39.519774 6 36.5 6 L 11.5 6 z M 11.5 9 L 36.5 9 C 37.898226 9 39 10.101774 39 11.5 L 39 36.5 C 39 37.898226 37.898226 39 36.5 39 L 11.5 39 C 10.101774 39 9 37.898226 9 36.5 L 9 11.5 C 9 10.101774 10.101774 9 11.5 9 z M 19 15.007812 C 17.461042 15.007812 15.922659 15.591639 14.757812 16.757812 C 12.429416 19.084886 12.427696 22.90144 14.75 25.232422 L 14.753906 25.236328 C 14.755606 25.238028 14.756113 25.240387 14.757812 25.242188 L 22.929688 33.550781 A 1.50015 1.50015 0 0 0 25.070312 33.552734 L 33.251953 25.234375 L 33.242188 25.242188 C 35.572679 22.911694 35.572679 19.088306 33.242188 16.757812 C 30.91238 14.426664 27.087107 14.425866 24.757812 16.757812 L 24 17.457031 L 23.244141 16.757812 C 22.079294 15.591639 20.538958 15.007812 19 15.007812 z M 19 17.990234 C 19.764542 17.990234 20.529941 18.28708 21.121094 18.878906 A 1.50015 1.50015 0 0 0 21.164062 18.919922 L 22.980469 20.601562 A 1.50015 1.50015 0 0 0 25.017578 20.601562 L 26.837891 18.919922 A 1.50015 1.50015 0 0 0 26.880859 18.878906 C 28.063166 17.695253 29.938787 17.695253 31.121094 18.878906 C 32.304601 20.062413 32.304601 21.937587 31.121094 23.121094 A 1.50015 1.50015 0 0 0 31.113281 23.130859 L 24 30.359375 L 16.888672 23.128906 A 1.50015 1.50015 0 0 0 16.878906 23.119141 C 15.694361 21.935269 15.694361 20.062778 16.878906 18.878906 A 1.50015 1.50015 0 0 0 16.880859 18.878906 C 17.472 18.287115 18.235458 17.990234 19 17.990234 z"/></svg>