<svg width="31" height="19" viewBox="0 0 31 19" fill="none" xmlns="http://www.w3.org/2000/svg">
<path d="M29.5 0H1.5C1.10218 0 0.720644 0.158035 0.43934 0.43934C0.158035 0.720644 0 1.10218 0 1.5V17.5C0 17.8978 0.158035 18.2794 0.43934 18.5607C0.720644 18.842 1.10218 19 1.5 19H29.5C29.8978 19 30.2794 18.842 30.5607 18.5607C30.842 18.2794 31 17.8978 31 17.5V1.5C31 1.10218 30.842 0.720644 30.5607 0.43934C30.2794 0.158035 29.8978 0 29.5 0ZM22.1513 16H8.84875C8.55195 14.5603 7.83983 13.2391 6.80038 12.1996C5.76094 11.1602 4.43972 10.448 3 10.1513V8.84875C4.43972 8.55195 5.76094 7.83983 6.80038 6.80038C7.83983 5.76094 8.55195 4.43972 8.84875 3H22.1513C22.448 4.43972 23.1602 5.76094 24.1996 6.80038C25.2391 7.83983 26.5603 8.55195 28 8.84875V10.1513C26.5603 10.448 25.2391 11.1602 24.1996 12.1996C23.1602 13.2391 22.448 14.5603 22.1513 16ZM28 5.7425C27.3683 5.51699 26.7946 5.15398 26.3203 4.67969C25.846 4.20541 25.483 3.63169 25.2575 3H28V5.7425ZM5.7425 3C5.51699 3.63169 5.15398 4.20541 4.67969 4.67969C4.20541 5.15398 3.63169 5.51699 3 5.7425V3H5.7425ZM3 13.2575C3.63169 13.483 4.20541 13.846 4.67969 14.3203C5.15398 14.7946 5.51699 15.3683 5.7425 16H3V13.2575ZM25.2575 16C25.483 15.3683 25.846 14.7946 26.3203 14.3203C26.7946 13.846 27.3683 13.483 28 13.2575V16H25.2575ZM15.5 4.5C14.5111 4.5 13.5444 4.79325 12.7221 5.34265C11.8999 5.89206 11.259 6.67295 10.8806 7.58658C10.5022 8.50021 10.4031 9.50555 10.5961 10.4755C10.789 11.4454 11.2652 12.3363 11.9645 13.0355C12.6637 13.7348 13.5546 14.211 14.5245 14.4039C15.4945 14.5969 16.4998 14.4978 17.4134 14.1194C18.327 13.741 19.1079 13.1001 19.6573 12.2779C20.2068 11.4556 20.5 10.4889 20.5 9.5C20.5 8.17392 19.9732 6.90215 19.0355 5.96447C18.0979 5.02678 16.8261 4.5 15.5 4.5ZM15.5 11.5C15.1044 11.5 14.7178 11.3827 14.3889 11.1629C14.06 10.9432 13.8036 10.6308 13.6522 10.2654C13.5009 9.89992 13.4613 9.49778 13.5384 9.10982C13.6156 8.72186 13.8061 8.36549 14.0858 8.08579C14.3655 7.80608 14.7219 7.6156 15.1098 7.53843C15.4978 7.46126 15.8999 7.50087 16.2654 7.65224C16.6308 7.80362 16.9432 8.05996 17.1629 8.38886C17.3827 8.71776 17.5 9.10444 17.5 9.5C17.5 10.0304 17.2893 10.5391 16.9142 10.9142C16.5391 11.2893 16.0304 11.5 15.5 11.5Z" fill="white"/>
</svg>
