<svg width="24" height="25" viewBox="0 0 24 25" fill="none" xmlns="http://www.w3.org/2000/svg">
<path d="M23.6048 22.6243L18.3343 17.1322C19.9146 14.9872 20.6524 12.2964 20.398 9.60559C20.1436 6.91482 18.9162 4.42557 16.9646 2.64281C15.0131 0.860048 12.4836 -0.0827372 9.88919 0.00570391C7.29483 0.0941451 4.8299 1.20719 2.99443 3.11905C1.15896 5.03091 0.0903834 7.59843 0.00547601 10.3008C-0.0794314 13.0031 0.825684 15.6379 2.53722 17.6707C4.24875 19.7035 6.63853 20.982 9.22179 21.2469C11.805 21.5119 14.3883 20.7434 16.4476 19.0974L21.7226 24.593C21.8465 24.722 21.9935 24.8244 22.1554 24.8942C22.3172 24.9641 22.4907 25 22.6659 25C22.8411 25 23.0146 24.9641 23.1764 24.8942C23.3383 24.8244 23.4854 24.722 23.6093 24.593C23.7331 24.464 23.8314 24.3108 23.8984 24.1422C23.9655 23.9736 24 23.7929 24 23.6104C24 23.4279 23.9655 23.2472 23.8984 23.0786C23.8314 22.91 23.7331 22.7568 23.6093 22.6278L23.6048 22.6243ZM2.68594 10.6585C2.68594 9.10382 3.12855 7.58401 3.9578 6.29131C4.78704 4.9986 5.96568 3.99106 7.34467 3.3961C8.72365 2.80113 10.241 2.64546 11.705 2.94877C13.1689 3.25208 14.5136 4.00075 15.569 5.10011C16.6244 6.19946 17.3432 7.60013 17.6344 9.12497C17.9256 10.6498 17.7761 12.2304 17.2049 13.6667C16.6338 15.1031 15.6665 16.3308 14.4254 17.1946C13.1844 18.0583 11.7253 18.5194 10.2327 18.5194C8.23179 18.5172 6.31344 17.6883 4.8986 16.2146C3.48376 14.7409 2.688 12.7427 2.68594 10.6585Z" fill="#1CA477"/>
</svg>
